<?xml version="1.0" standalone="no"?>
<!DOCTYPE svg PUBLIC "-//W3C//DTD SVG 20010904//EN"
 "http://www.w3.org/TR/2001/REC-SVG-20010904/DTD/svg10.dtd">
<svg version="1.0" xmlns="http://www.w3.org/2000/svg"
 width="700.000000pt" height="700.000000pt" viewBox="0 0 700.000000 700.000000"
 preserveAspectRatio="xMidYMid meet">
<metadata>
Created by potrace 1.14, written by Peter Selinger 2001-2017
</metadata>
<g transform="translate(0.000000,700.000000) scale(0.100000,-0.100000)"
fill="#000000" stroke="none">
<path d="M3308 6145 c-2 -2 -66 -5 -143 -9 -223 -10 -541 -43 -710 -76 -27 -5
-67 -12 -88 -15 -83 -12 -370 -79 -512 -120 -272 -79 -477 -157 -703 -267
-214 -104 -356 -191 -522 -319 -345 -266 -550 -572 -614 -914 -13 -68 -15
-208 -13 -955 3 -769 5 -883 20 -941 49 -199 122 -347 269 -544 50 -67 260
-266 360 -340 374 -280 896 -509 1448 -635 91 -21 183 -40 212 -45 18 -3 69
-12 113 -20 163 -29 345 -52 550 -70 269 -24 902 -24 1058 0 12 2 56 6 97 10
41 3 89 8 105 10 17 3 68 9 115 16 127 16 132 17 170 24 881 148 1590 458
2034 886 195 188 350 431 400 626 45 174 45 166 45 1058 0 794 -1 856 -19 941
-80 383 -331 714 -762 1002 -421 281 -1007 498 -1633 606 -16 3 -41 8 -55 10
-32 7 -67 11 -215 30 -297 37 -453 47 -772 50 -128 2 -234 2 -235 1z m582
-289 c151 -11 278 -23 380 -37 178 -24 200 -27 345 -55 72 -13 139 -26 150
-28 78 -16 324 -83 443 -121 335 -108 670 -267 892 -423 314 -221 516 -471
590 -732 33 -115 36 -298 6 -415 -59 -237 -217 -460 -466 -657 -41 -33 -82
-65 -90 -72 -18 -14 -99 -67 -180 -118 -182 -114 -526 -264 -795 -347 -190
-58 -541 -141 -659 -156 -27 -3 -51 -7 -55 -9 -3 -2 -33 -7 -66 -11 -33 -4
-73 -8 -90 -10 -16 -3 -77 -9 -135 -15 -58 -6 -115 -13 -128 -15 -148 -24
-827 -24 -1052 0 -19 2 -64 6 -100 10 -127 12 -195 21 -380 51 -84 14 -181 31
-215 39 -33 8 -72 16 -86 19 -48 8 -297 75 -396 107 -165 52 -420 157 -576
236 -127 65 -340 195 -402 245 -114 93 -154 128 -215 190 -156 158 -258 329
-305 509 -21 81 -24 112 -21 224 3 107 8 144 29 210 75 231 221 430 451 613
39 31 73 59 76 62 18 18 176 119 270 173 76 43 254 129 371 178 189 79 544
192 679 215 14 3 31 7 39 9 15 6 151 35 191 41 23 4 72 13 110 20 8 2 67 10
130 19 63 9 129 18 145 20 17 3 64 7 105 10 41 3 84 8 95 10 11 2 81 7 155 11
74 3 136 7 138 9 5 4 540 -3 622 -9z m-3461 -2537 c199 -198 439 -361 756
-513 64 -31 118 -56 120 -56 2 0 28 -11 57 -24 84 -38 325 -122 475 -165 363
-105 676 -162 1138 -206 252 -24 787 -24 1035 0 19 1 73 6 120 9 47 4 94 9
105 11 11 2 43 7 70 10 28 3 95 13 150 21 55 9 109 17 120 18 11 2 47 9 80 15
33 6 74 14 90 16 105 19 429 106 590 160 522 174 936 408 1226 695 58 58 116
118 128 134 12 16 24 26 27 23 3 -3 6 -178 5 -389 -1 -424 -7 -486 -60 -624
-223 -576 -1089 -1068 -2191 -1244 -41 -7 -82 -14 -90 -15 -8 -1 -40 -6 -70
-9 -30 -4 -71 -9 -90 -12 -32 -4 -69 -7 -195 -19 -271 -25 -816 -25 -1040 -1
-22 3 -69 7 -105 10 -83 7 -139 14 -220 26 -36 5 -78 11 -95 14 -314 43 -753
161 -1051 282 -115 46 -363 166 -452 219 -412 243 -676 542 -757 856 -23 91
-24 105 -24 509 l-1 415 27 -35 c14 -19 69 -78 122 -131z"/>
<path d="M2069 5426 c-3 -4 -39 -16 -80 -27 -173 -47 -469 -166 -507 -203 -88
-86 -30 -238 92 -238 17 0 79 20 136 45 102 43 283 107 404 143 64 19 125 71
127 108 5 70 -17 127 -61 154 -23 14 -102 27 -111 18z"/>
<path d="M930 4778 c-44 -12 -63 -29 -110 -98 -121 -178 -170 -390 -131 -570
6 -25 13 -58 17 -75 3 -16 23 -66 44 -110 175 -379 682 -703 1387 -885 84 -22
162 -41 175 -44 338 -64 365 -68 493 -81 33 -3 76 -8 95 -10 34 -5 68 -8 250
-21 47 -3 149 -7 228 -9 129 -2 146 -1 184 19 52 27 81 76 74 129 -6 51 -44
104 -82 117 -16 6 -100 12 -185 15 -169 5 -335 13 -389 20 -19 2 -82 9 -140
15 -57 6 -107 13 -110 15 -3 1 -32 6 -65 10 -148 17 -495 96 -673 154 -690
226 -1090 594 -1029 946 12 69 54 175 69 175 4 0 8 5 8 12 0 6 11 25 24 43 59
77 46 178 -28 217 -36 20 -71 25 -106 16z"/>
</g>
</svg>
